<?xml version="1.0" encoding="UTF-8" standalone="no"?>
<svg
   xmlns:dc="http://purl.org/dc/elements/1.1/"
   xmlns:cc="http://creativecommons.org/ns#"
   xmlns:rdf="http://www.w3.org/1999/02/22-rdf-syntax-ns#"
   xmlns:svg="http://www.w3.org/2000/svg"
   xmlns="http://www.w3.org/2000/svg"
   xmlns:sodipodi="http://sodipodi.sourceforge.net/DTD/sodipodi-0.dtd"
   xmlns:inkscape="http://www.inkscape.org/namespaces/inkscape"
   width="210mm"
   height="297mm"
   viewBox="0 0 210 297"
   version="1.1"
   id="svg8"
   sodipodi:docname="smm logo vektor.svg"
   inkscape:version="1.0.2 (e86c870879, 2021-01-15, custom)">
  <defs
     id="defs2" />
  <sodipodi:namedview
     id="base"
     pagecolor="#ffffff"
     bordercolor="#666666"
     borderopacity="1.0"
     inkscape:pageopacity="0.0"
     inkscape:pageshadow="2"
     inkscape:zoom="0.35"
     inkscape:cx="400"
     inkscape:cy="560"
     inkscape:document-units="mm"
     inkscape:current-layer="layer1"
     inkscape:document-rotation="0"
     showgrid="false"
     inkscape:window-width="1366"
     inkscape:window-height="705"
     inkscape:window-x="-8"
     inkscape:window-y="-8"
     inkscape:window-maximized="1" />
  <metadata
     id="metadata5">
    <rdf:RDF>
      <cc:Work
         rdf:about="">
        <dc:format>image/svg+xml</dc:format>
        <dc:type
           rdf:resource="http://purl.org/dc/dcmitype/StillImage" />
      </cc:Work>
    </rdf:RDF>
  </metadata>
  <g
     inkscape:label="Layer 1"
     inkscape:groupmode="layer"
     id="layer1">
    <path
       style="fill:#000000;stroke-width:0.225756"
       d="m 6.8524815,202.17031 c 0.4287722,-0.78343 2.4849673,-4.59911 4.5693205,-8.47929 l 3.789729,-7.05489 h 18.46215 c 17.749496,0 18.517532,-0.0172 19.896909,-0.44588 3.597355,-1.11793 5.837009,-3.89201 5.837009,-7.22984 0,-3.33784 -2.239654,-6.11191 -5.837009,-7.22984 -1.329788,-0.41326 -2.108389,-0.44588 -10.642053,-0.44588 -7.331524,0 -9.57926,-0.0705 -11.033107,-0.34635 -10.390019,-1.97095 -18.490826,-9.201 -20.859352,-18.61719 -0.654536,-2.60212 -0.694506,-7.42702 -0.08324,-10.04616 0.991068,-4.24647 2.867216,-7.70067 5.944883,-10.9452 3.244654,-3.42058 6.774234,-5.62049 11.24261,-7.00726 1.241662,-0.38536 2.562337,-0.81831 2.934833,-0.96211 0.494276,-0.1908 7.432986,-0.28122 25.679798,-0.33461 13.75139,-0.0403 25.002522,-0.0371 25.002522,0.007 0,0.0442 -2.015912,3.83292 -4.479807,8.41951 l -4.47981,8.33927 -18.829541,0.11287 -18.829546,0.11289 -1.305393,0.5269 c -4.517947,1.82359 -6.488865,6.17012 -4.573238,10.08552 0.65165,1.33193 2.094285,2.77603 3.478864,3.48238 2.063754,1.05285 3.001028,1.14375 11.793662,1.14375 7.202551,0 8.617367,0.0578 10.84531,0.44221 10.822964,1.86797 19.088121,9.06402 21.452727,18.67779 0.688088,2.79753 0.688088,7.27435 0,10.07187 -2.105283,8.55945 -8.986334,15.49955 -17.756181,17.90858 -1.120552,0.3078 -2.240556,0.6809 -2.48889,0.82909 -0.340628,0.20328 -6.598583,0.28661 -25.482127,0.33932 L 6.072898,203.5944 Z M 137.8415,189.85316 c -3.82798,-7.41892 -8.59037,-16.66213 -10.58308,-20.54048 -1.99272,-3.87833 -3.67391,-7.05059 -3.736,-7.04944 -0.062,0.002 -0.76771,1.39649 -1.56804,3.10079 -0.80036,1.70429 -2.96336,6.22155 -4.80668,10.03834 l -3.35148,6.93964 5.20174,10.23886 c 2.86095,5.63137 5.20173,10.30559 5.20173,10.38716 0,0.0816 -2.88254,0.14831 -6.40563,0.14831 h -6.40563 l -4.85467,-9.42532 C 83.505989,148.98273 83.48114,148.93481 83.328757,148.93481 c -0.07617,0 -0.602477,0.9905 -1.169578,2.20112 -2.105254,4.49418 -6.779811,14.39367 -6.819589,14.44211 -0.120982,0.14729 -8.13175,-9.9494 -8.069925,-10.17127 0.07267,-0.2608 4.538712,-8.80384 12.688211,-24.27115 2.312147,-4.38833 4.290192,-7.97807 4.395661,-7.9772 0.105468,7.7e-4 3.892662,7.55334 8.415985,16.78328 4.523321,9.22993 9.610518,19.6113 11.304898,23.06969 l 3.08066,6.288 2.09349,-3.91755 c 1.15142,-2.15466 2.18921,-4.06995 2.30621,-4.25619 0.17324,-0.27577 0.45662,-0.0974 1.52642,0.96072 l 1.31371,1.29935 1.53971,-2.87966 c 4.2096,-7.87306 8.35285,-15.40912 8.47178,-15.40912 0.12975,0 19.86532,39.00399 22.65341,44.77066 l 1.39866,2.89285 2.14971,-0.14702 2.1497,-0.14701 2.7829,5.43785 2.7829,5.43783 h -6.76111 -6.7611 z m 46.94174,13.32484 -0.93509,-0.0852 -13.15802,-25.55513 C 163.45321,163.48233 157.06465,151.10435 156.49332,150.031 l -1.03878,-1.95152 -4.56536,8.97237 c -2.51095,4.93481 -4.56536,9.09755 -4.56536,9.25055 0,0.24534 6.01445,12.09327 11.43955,22.53487 l 1.90604,3.66855 -3.34289,-0.004 -3.34289,-0.004 -2.12056,-3.98873 c -1.16629,-2.19377 -3.77479,-7.24617 -5.79664,-11.22753 -2.02184,-3.98136 -4.18891,-8.15314 -4.81569,-9.27063 -0.62679,-1.1175 -4.50248,-8.60979 -8.61265,-16.64954 -4.11018,-8.03975 -7.55652,-14.61773 -7.65856,-14.61773 -0.10202,0 -2.83063,5.2065 -6.06356,11.57002 -3.23293,6.36351 -5.96403,11.70998 -6.06909,11.88105 -0.14212,0.23134 -0.76618,-0.31004 -2.43591,-2.11317 l -2.24484,-2.42419 8.23458,-16.33694 c 4.52903,-8.98531 8.28539,-16.3382 8.34747,-16.33975 0.0621,-0.002 3.61587,6.8515 7.89731,15.22898 7.06843,13.83081 7.80943,15.18545 8.05625,14.72793 0.14951,-0.27712 3.7638,-7.09212 8.03177,-15.14446 4.26796,-8.05233 7.85556,-14.62568 7.97244,-14.60746 0.16261,0.0254 40.38979,78.58876 40.89823,79.87394 0.0877,0.22172 -1.06658,0.27375 -5.38711,0.24275 -3.02432,-0.0217 -5.91954,-0.0778 -6.43383,-0.12466 z"
       id="path24" />
  </g>
</svg>
