<?xml version="1.0" encoding="utf-8"?>
<!-- Generator: Adobe Illustrator 25.2.3, SVG Export Plug-In . SVG Version: 6.00 Build 0)  -->
<svg version="1.1"
	 id="svg8" xmlns:cc="http://creativecommons.org/ns#" xmlns:dc="http://purl.org/dc/elements/1.1/" xmlns:inkscape="http://www.inkscape.org/namespaces/inkscape" xmlns:rdf="http://www.w3.org/1999/02/22-rdf-syntax-ns#" xmlns:sodipodi="http://sodipodi.sourceforge.net/DTD/sodipodi-0.dtd" xmlns:svg="http://www.w3.org/2000/svg"
	 xmlns="http://www.w3.org/2000/svg" xmlns:xlink="http://www.w3.org/1999/xlink" x="0px" y="0px" viewBox="0 0 540.1 228.5"
	 style="enable-background:new 0 0 540.1 228.5;" xml:space="preserve">
<style type="text/css">
	.st0{fill:#FFFFFF;}
</style>
<sodipodi:namedview  bordercolor="#666666" borderopacity="1.0" id="base" inkscape:current-layer="layer1" inkscape:cx="400" inkscape:cy="560" inkscape:document-rotation="0" inkscape:document-units="mm" inkscape:pageopacity="0.0" inkscape:pageshadow="2" inkscape:window-height="705" inkscape:window-maximized="1" inkscape:window-width="1366" inkscape:window-x="-8" inkscape:window-y="-8" inkscape:zoom="0.35" pagecolor="#ffffff" showgrid="false">
	</sodipodi:namedview>
<g id="layer1" inkscape:groupmode="layer" inkscape:label="Layer 1">
	<path id="path24" class="st0" d="M2.2,224.5c1.2-2.2,7-13,13-24l10.7-20h52.3c50.3,0,52.5,0,56.4-1.3c10.2-3.2,16.5-11,16.5-20.5
		c0-9.5-6.3-17.3-16.5-20.5c-3.8-1.2-6-1.3-30.2-1.3c-20.8,0-27.2-0.2-31.3-1c-29.5-5.6-52.4-26.1-59.1-52.8
		c-1.9-7.4-2-21.1-0.2-28.5c2.8-12,8.1-21.8,16.9-31C39.9,14,49.9,7.7,62.6,3.8c3.5-1.1,7.3-2.3,8.3-2.7c1.4-0.5,21.1-0.8,72.8-0.9
		c39-0.1,70.9-0.1,70.9,0c0,0.1-5.7,10.9-12.7,23.9l-12.7,23.6L135.8,48l-53.4,0.3l-3.7,1.5c-12.8,5.2-18.4,17.5-13,28.6
		c1.8,3.8,5.9,7.9,9.9,9.9c5.9,3,8.5,3.2,33.4,3.2c20.4,0,24.4,0.2,30.7,1.3c30.7,5.3,54.1,25.7,60.8,52.9c2,7.9,2,20.6,0,28.6
		c-6,24.3-25.5,43.9-50.3,50.8c-3.2,0.9-6.4,1.9-7.1,2.4c-1,0.6-18.7,0.8-72.2,1l-71,0.2L2.2,224.5z M373.5,189.6
		c-10.9-21-24.4-47.2-30-58.2c-5.6-11-10.4-20-10.6-20c-0.2,0-2.2,4-4.4,8.8c-2.3,4.8-8.4,17.6-13.6,28.5l-9.5,19.7l14.7,29
		c8.1,16,14.7,29.2,14.7,29.4c0,0.2-8.2,0.4-18.2,0.4h-18.2l-13.8-26.7C219.5,73.7,219.4,73.6,219,73.6c-0.2,0-1.7,2.8-3.3,6.2
		c-6,12.7-19.2,40.8-19.3,40.9c-0.3,0.4-23.1-28.2-22.9-28.8c0.2-0.7,12.9-25,36-68.8c6.6-12.4,12.2-22.6,12.5-22.6
		c0.3,0,11,21.4,23.9,47.6c12.8,26.2,27.2,55.6,32,65.4l8.7,17.8l5.9-11.1c3.3-6.1,6.2-11.5,6.5-12.1c0.5-0.8,1.3-0.3,4.3,2.7
		l3.7,3.7l4.4-8.2c11.9-22.3,23.7-43.7,24-43.7c0.4,0,56.3,110.6,64.2,126.9l4,8.2l6.1-0.4l6.1-0.4l7.9,15.4l7.9,15.4h-19.2h-19.2
		L373.5,189.6z M506.6,227.3l-2.7-0.2l-37.3-72.4c-20.5-39.8-38.6-74.9-40.2-78l-2.9-5.5l-12.9,25.4c-7.1,14-12.9,25.8-12.9,26.2
		c0,0.7,17,34.3,32.4,63.9l5.4,10.4l-9.5,0l-9.5,0l-6-11.3c-3.3-6.2-10.7-20.5-16.4-31.8c-5.7-11.3-11.9-23.1-13.7-26.3
		c-1.8-3.2-12.8-24.4-24.4-47.2C344.3,57.7,334.5,39,334.2,39c-0.3,0-8,14.8-17.2,32.8c-9.2,18-16.9,33.2-17.2,33.7
		c-0.4,0.7-2.2-0.9-6.9-6l-6.4-6.9l23.3-46.3C322.7,20.8,333.4,0,333.6,0c0.2,0,10.2,19.4,22.4,43.2c20,39.2,22.1,43,22.8,41.7
		c0.4-0.8,10.7-20.1,22.8-42.9c12.1-22.8,22.3-41.5,22.6-41.4c0.5,0.1,114.5,222.8,115.9,226.4c0.2,0.6-3,0.8-15.3,0.7
		C516.2,227.6,508,227.5,506.6,227.3L506.6,227.3z"/>
</g>
</svg>
